<svg width="75" height="75" viewBox="0 0 75 75" fill="none" xmlns="http://www.w3.org/2000/svg">
<g clip-path="url(#clip0_44_283)">
<path d="M42.1817 45.5937C44.7759 45.5937 46.8789 43.4951 46.8789 40.9062C46.8789 38.3174 44.7759 36.2188 42.1817 36.2188C39.5874 36.2188 37.4844 38.3174 37.4844 40.9062C37.4844 43.4951 39.5874 45.5937 42.1817 45.5937Z" fill="#03BB85"/>
<path d="M55.2088 75H44.0919L15.1566 47.4375L9.33194 53.4375V75H0V0H9.33194V42.5312L51.1378 0H62.3173L21.4509 40.9062L55.2088 75Z" fill="#1D1D1B"/>
<path d="M65.6681 20.7188V32.25L55.0835 20.7188H43.3403L63.1942 40.9062L43.3403 61.125H55.0835L65.6681 49.5937V75H75V20.7188H65.6681Z" fill="#1D1D1B"/>
<path d="M75 65.6875H65.6681V75H75V65.6875Z" fill="#03BB85"/>
</g>
<defs>
<clipPath id="clip0_44_283">
<rect width="75" height="75" fill="white"/>
</clipPath>
</defs>
</svg>
